<?xml version="1.0" encoding="UTF-8" standalone="no"?>
<svg
   version="1.1"
   id="svg1"
   sodipodi:docname="1.svg"
   inkscape:version="1.3.2 (1:1.3.2+202311252150+091e20ef0f)"
   xmlns:inkscape="http://www.inkscape.org/namespaces/inkscape"
   xmlns:sodipodi="http://sodipodi.sourceforge.net/DTD/sodipodi-0.dtd"
   xmlns="http://www.w3.org/2000/svg"
   xmlns:svg="http://www.w3.org/2000/svg">
  <defs
     id="defs1">
    <inkscape:path-effect
       effect="spiro"
       id="path-effect17"
       is_visible="true"
       lpeversion="1" />
    <inkscape:path-effect
       effect="simplify"
       id="path-effect16"
       is_visible="true"
       lpeversion="1.3"
       threshold="47.8261"
       steps="1"
       smooth_angles="360"
       helper_size="0"
       simplify_individual_paths="false"
       simplify_just_coalesce="false" />
    <inkscape:path-effect
       effect="spiro"
       id="path-effect15"
       is_visible="true"
       lpeversion="1" />
    <inkscape:path-effect
       effect="simplify"
       id="path-effect14"
       is_visible="true"
       lpeversion="1.3"
       threshold="47.8261"
       steps="1"
       smooth_angles="360"
       helper_size="0"
       simplify_individual_paths="false"
       simplify_just_coalesce="false" />
    <inkscape:path-effect
       effect="spiro"
       id="path-effect13"
       is_visible="true"
       lpeversion="1" />
    <inkscape:path-effect
       effect="simplify"
       id="path-effect12"
       is_visible="true"
       lpeversion="1.3"
       threshold="47.8261"
       steps="1"
       smooth_angles="360"
       helper_size="0"
       simplify_individual_paths="false"
       simplify_just_coalesce="false" />
    <inkscape:path-effect
       effect="spiro"
       id="path-effect11"
       is_visible="true"
       lpeversion="1" />
    <inkscape:path-effect
       effect="simplify"
       id="path-effect10"
       is_visible="true"
       lpeversion="1.3"
       threshold="47.8261"
       steps="1"
       smooth_angles="360"
       helper_size="0"
       simplify_individual_paths="false"
       simplify_just_coalesce="false" />
    <inkscape:perspective
       sodipodi:type="inkscape:persp3d"
       inkscape:vp_x="0 : 75 : 1"
       inkscape:vp_y="0 : 1000 : 0"
       inkscape:vp_z="300 : 75 : 1"
       inkscape:persp3d-origin="150 : 50 : 1"
       id="perspective2" />
  </defs>
  <sodipodi:namedview
     id="namedview1"
     pagecolor="#ffffff"
     bordercolor="#666666"
     borderopacity="1.0"
     inkscape:showpageshadow="2"
     inkscape:pageopacity="0.0"
     inkscape:pagecheckerboard="0"
     inkscape:deskcolor="#d1d1d1"
     inkscape:zoom="4.7233333"
     inkscape:cx="150.10586"
     inkscape:cy="75.052929"
     inkscape:current-layer="svg1" />
  <rect
     style="fill:#ff5555;fill-opacity:0.998696;stroke-width:6.49837;-inkscape-stroke:none;paint-order:stroke fill markers"
     id="rect1"
     width="28.822971"
     height="24.93211"
     x="65.224182"
     y="11.392087" />
  <path
     sodipodi:type="star"
     style="fill:#ff5555;fill-opacity:0.998696;stroke-width:6.49837;-inkscape-stroke:none;paint-order:stroke fill markers"
     id="path2"
     inkscape:flatsided="false"
     sodipodi:sides="3"
     sodipodi:cx="121.45405"
     sodipodi:cy="46.16032"
     sodipodi:r1="29.376062"
     sodipodi:r2="14.688027"
     sodipodi:arg1="0.65791765"
     sodipodi:arg2="1.7051152"
     inkscape:rounded="0"
     inkscape:randomized="0"
     d="M 144.69836,64.122915 119.4871,60.716049 94.275827,57.309191 109.83189,37.179025 l 15.55606,-20.13017 9.65521,23.537031 z"
     inkscape:transform-center-x="1.9669529"
     inkscape:transform-center-y="-5.5744351" />
  <g
     sodipodi:type="inkscape:box3d"
     id="g2"
     style="fill:#ff5555;fill-opacity:0.998696;stroke-width:6.49837;-inkscape-stroke:none;paint-order:stroke fill markers;stop-color:#000000"
     inkscape:perspectiveID="#perspective2"
     inkscape:corner0="-0.12326173 : 0.070098517 : 0 : 1.1232617"
     inkscape:corner7="-0.17438115 : 0.045947086 : 0.25 : 1">
    <path
       sodipodi:type="inkscape:box3dside"
       id="path8"
       style="fill:#e9e9ff;fill-rule:evenodd;stroke:none;stroke-linejoin:round"
       inkscape:box3dsidetype="11"
       d="m 197.32265,42.195136 11.85925,-1.9716 V 55.52555 l -11.85925,1.104075 z"
       points="209.1819,40.223536 209.1819,55.52555 197.32265,56.629625 197.32265,42.195136 " />
    <path
       sodipodi:type="inkscape:box3dside"
       id="path3"
       style="fill:#353564;fill-rule:evenodd;stroke:none;stroke-linejoin:round"
       inkscape:box3dsidetype="6"
       d="M 168.48926,32.983024 V 51.47094 l 28.83339,5.158685 V 42.195136 Z"
       points="168.48926,51.47094 197.32265,56.629625 197.32265,42.195136 168.48926,32.983024 " />
    <path
       sodipodi:type="inkscape:box3dside"
       id="path4"
       style="fill:#4d4d9f;fill-rule:evenodd;stroke:none;stroke-linejoin:round"
       inkscape:box3dsidetype="5"
       d="m 168.48926,32.983024 13.19264,-3.289911 27.5,10.530423 -11.85925,1.9716 z"
       points="181.6819,29.693113 209.1819,40.223536 197.32265,42.195136 168.48926,32.983024 " />
    <path
       sodipodi:type="inkscape:box3dside"
       id="path7"
       style="fill:#afafde;fill-rule:evenodd;stroke:none;stroke-linejoin:round"
       inkscape:box3dsidetype="13"
       d="m 168.48926,51.47094 13.19264,-1.842315 27.5,5.896925 -11.85925,1.104075 z"
       points="181.6819,49.628625 209.1819,55.52555 197.32265,56.629625 168.48926,51.47094 " />
    <path
       sodipodi:type="inkscape:box3dside"
       id="path6"
       style="fill:#d7d7ff;fill-rule:evenodd;stroke:none;stroke-linejoin:round"
       inkscape:box3dsidetype="14"
       d="m 181.6819,29.693113 v 19.935512 l 27.5,5.896925 V 40.223536 Z"
       points="181.6819,49.628625 209.1819,55.52555 209.1819,40.223536 181.6819,29.693113 " />
    <path
       sodipodi:type="inkscape:box3dside"
       id="path5"
       style="fill:#8686bf;fill-rule:evenodd;stroke:none;stroke-linejoin:round"
       inkscape:box3dsidetype="3"
       d="M 168.48926,32.983024 181.6819,29.693113 V 49.628625 L 168.48926,51.47094 Z"
       points="181.6819,29.693113 181.6819,49.628625 168.48926,51.47094 168.48926,32.983024 " />
  </g>
  <path
     sodipodi:type="spiral"
     style="fill:none;fill-rule:evenodd;stroke:#000000"
     id="path9"
     sodipodi:cx="82.765999"
     sodipodi:cy="81.116432"
     sodipodi:expansion="1"
     sodipodi:revolution="3"
     sodipodi:radius="23.23665"
     sodipodi:argument="-18.288769"
     sodipodi:t0="0"
     d="m 82.765999,81.116432 c 0.986606,0.619635 -0.348499,1.635631 -1.029874,1.639804 -1.846484,0.01131 -2.643249,-2.175082 -2.249734,-3.699551 0.703906,-2.726916 3.913406,-3.760795 6.369228,-2.859665 3.604017,1.322445 4.904507,5.672798 3.469596,9.038906 -1.91251,4.486492 -7.439339,6.058949 -11.708583,4.079527 -5.372409,-2.490901 -7.218857,-9.209207 -4.689458,-14.378261 3.063442,-6.260418 10.980933,-8.381915 17.047939,-5.299388 7.149757,3.632651 9.546947,12.753813 5.909318,19.717616 -4.199786,8.039986 -14.527465,10.7133 -22.387293,6.519249 -8.930836,-4.765544 -11.88057,-16.301661 -7.12918,-25.056971 5.330341,-9.822135 18.076252,-13.048512 27.726649,-7.739111 10.713773,5.894442 14.216953,19.851142 8.349043,30.396326" />
  <path
     style="fill:none;stroke:#000000;stroke-width:1px;stroke-linecap:butt;stroke-linejoin:miter;stroke-opacity:1"
     d="m 135.74783,87.972628 c -0.65971,-4.39636 0.38397,-9.026284 2.86609,-12.714413 1.97892,-2.940452 4.78426,-5.233613 7.74546,-7.181362 2.96119,-1.947749 6.11252,-3.591828 9.08874,-5.516537 2.39936,-1.551654 4.70639,-3.297177 7.34861,-4.384927 1.32112,-0.543875 2.72247,-0.917301 4.14949,-0.986248 1.42702,-0.06895 2.88205,0.17509 4.1616,0.810604 1.13606,0.564245 2.11666,1.430774 2.8382,2.474034 0.72154,1.043259 1.18488,2.260123 1.36618,3.515565 0.36262,2.510885 -0.42703,5.128796 -1.96361,7.147449 -1.82115,2.3925 -4.53812,3.903042 -6.84118,5.836056 -1.15153,0.966507 -2.21852,2.061884 -2.96641,3.366036 -0.7479,1.304151 -1.16015,2.836333 -0.95082,4.32507 0.16456,1.170309 0.70808,2.272455 1.47292,3.173411 0.76484,0.900955 1.74463,1.606234 2.80611,2.125825 2.12295,1.039181 4.52349,1.336564 6.87775,1.547001 3.05931,0.273458 6.12949,0.425302 9.20086,0.455053"
     id="path10"
     inkscape:path-effect="#path-effect10;#path-effect11"
     inkscape:original-d="m 135.74783,87.972628 c -5.65291,-7.633009 4.42694,-14.184738 9.87614,-18.302057 1.36204,-1.029128 7.51938,-5.927091 9.82415,-7.110255 1.07135,-0.549984 8.52886,-3.385819 9.98332,-3.792622 1.9625,-0.548903 5.55428,-1.786488 7.24668,0.149133 0.7114,0.813634 1.11033,2.721602 1.30304,3.712997 1.49249,7.678191 -2.62683,13.405827 -7.48135,18.897027 -1.04011,1.176514 -3.5948,2.366627 -4.23164,3.596491 -1.50316,2.902901 7.86701,5.899773 9.36707,6.117764 3.74806,0.544675 7.53097,0.724139 11.31258,0.724139" />
  <path
     style="fill:none;stroke:#000000;stroke-width:1px;stroke-linecap:butt;stroke-linejoin:miter;stroke-opacity:1"
     d="m 95.2005,57.083511 c -1.762638,-3.635697 -2.521246,-7.751962 -2.170471,-11.777151 0.327028,-3.752679 1.600993,-7.390171 3.455804,-10.668773 1.85481,-3.278602 4.280987,-6.210056 6.969467,-8.84855 3.65434,-3.586403 7.90975,-6.70697 12.79893,-8.227623 3.65421,-1.136546 7.59458,-1.339764 11.34632,-0.585166"
     id="path11"
     inkscape:path-effect="#path-effect12;#path-effect13"
     inkscape:original-d="m 95.2005,57.083511 c -0.699663,0.630442 -1.462179,-2.429188 -2.095026,-5.909848 -1.503258,-8.267919 3.142409,-14.577042 7.477836,-21.080182 1.15625,-1.734382 2.39148,-4.1095 4.03078,-5.5155 1.84989,-1.586627 3.83413,-3.237896 5.94344,-4.461435 1.57118,-0.911385 3.36071,-1.34994 4.94651,-2.142838 1.13626,-0.568132 1.59656,-1.062802 2.96401,-1.482004 2.78506,-0.853784 7.28477,-3.235965 9.1325,0.484544" />
  <path
     style="fill:none;stroke:#000000;stroke-width:1px;stroke-linecap:butt;stroke-linejoin:miter;stroke-opacity:1"
     d="m 125.92562,19.062016 c 4.68743,0.167619 9.29626,2.030122 12.78407,5.166255 3.49461,3.142242 5.80963,7.457694 7.03028,11.995973 1.22065,4.538279 1.39737,9.303889 1.07623,13.992474 -0.31267,4.564892 -1.09105,9.097755 -2.31914,13.50545 l -0.29095,0.381532"
     id="path13"
     inkscape:path-effect="#path-effect14;#path-effect15"
     inkscape:original-d="m 125.92562,19.062016 c 2.90995,0.927387 6.47072,1.091686 9.17205,2.593339 10.82583,6.018008 11.72539,19.170078 11.72539,30.113937 0,1.687946 -1.02979,10.74725 -2.61695,12.334408" />
  <path
     style="fill:none;stroke:#000000;stroke-width:1px;stroke-linecap:butt;stroke-linejoin:miter;stroke-opacity:1"
     d="m 96.533513,58.269885 c 2.904427,4.9109 7.798157,8.60554 13.316777,10.053817 4.45051,1.167968 9.13208,0.910082 13.72974,0.729245 4.53859,-0.178514 9.11824,-0.278544 13.53897,-1.321494 2.33671,-0.55128 4.61166,-1.36387 6.76884,-2.417758"
     id="path15"
     inkscape:path-effect="#path-effect16;#path-effect17"
     inkscape:original-d="m 96.533513,58.269885 c 3.32383,2.862405 7.268087,5.078386 10.673047,7.994085 1.67383,1.433317 3.54643,2.884821 5.48905,3.523442 0.6775,0.222721 2.47355,0.02954 3.07463,0 3.83864,-0.188679 7.5972,-0.711239 11.29459,-1.173412 1.86527,-0.233159 3.39417,-0.889523 5.25375,-1.058575 3.77254,-0.342958 9.60463,1.687546 11.56926,-2.24173" />
</svg>
